<svg width="31" height="30" viewBox="0 0 31 30" fill="none" xmlns="http://www.w3.org/2000/svg">
<path d="M9.06154 23.9062C7.35639 23.9062 5.96154 25.2771 5.96154 26.9531C5.96154 28.6291 7.35639 30 9.06154 30C10.7667 30 12.1616 28.6291 12.1616 26.9531C12.1615 25.2771 10.7666 23.9062 9.06154 23.9062ZM0 0V3.04687H3.1L8.68022 14.1564L6.34718 17.8883C6.11482 18.2692 5.95968 18.8025 5.95968 19.336C5.95968 21.3758 7.3774 22.3828 9.3 22.3828H27.4231V19.4531H9.67953C9.44718 19.4531 9.29203 19.3007 9.29203 19.0723C9.29203 18.9964 9.45649 18.6914 9.45649 18.6914L11.0051 16.2891H22.5522C23.7148 16.2891 24.7228 15.6799 25.2647 14.6898L30.8449 5.25621C30.937 5.07596 31 4.79874 31 4.49457C31 3.65624 30.3022 3.04694 29.45 3.04694H6.5103L5.0375 0H0ZM24.323 23.9062C22.6179 23.9062 21.223 25.2771 21.223 26.9531C21.223 28.6291 22.6179 30 24.323 30C26.0282 30 27.4231 28.629 27.4231 26.9531C27.4231 25.2771 26.0282 23.9062 24.323 23.9062Z" fill="#D9D9D9"/>
</svg>
