<svg width="32" height="48" viewBox="0 0 32 48" fill="none" xmlns="http://www.w3.org/2000/svg">
<path d="M13.2076 0.000142154C11.6806 -0.0255476 10.4249 3.43847 11.972 4.08996L12.866 4.46092L14.6542 2.86815L14.4734 0.45331L13.5994 0.0833773C13.4889 0.0391908 13.3884 0.0135009 13.2779 0.003225H13.2076V0.000142154ZM26.709 0.813995H26.478C25.7346 0.844823 24.941 1.03184 24.1373 1.40486C22.0076 2.39854 19.7574 4.762 18.14 9.18784L7.803 37.796L7.79295 37.8166V37.8371C7.88337 37.8885 8.1546 38.0324 8.59661 38.2481C9.58109 38.7414 11.0076 39.8615 11.2185 42.2352V42.2866L11.1181 48H20.8222C20.8122 46.1914 20.9629 44.4548 21.6359 42.7079C22.8113 39.6868 25.5839 37.0664 31.3803 34.7954C31.3803 34.7749 31.3803 34.7954 31.3903 34.7543C31.4205 34.5488 31.4305 34.1378 31.3903 33.624C31.2899 32.5861 30.9885 31.0653 30.5264 29.2875C29.6022 25.7218 28.0351 21.0463 26.267 16.4529L26.0259 15.8158L26.5483 15.3842C30.1748 12.4864 31.6816 9.5886 31.9529 7.2087C32.2241 4.83907 31.2999 2.94625 29.8131 1.83953C28.9392 1.19112 27.8743 0.812968 26.709 0.809885V0.813995ZM16.4524 2.62564L16.5227 3.65426L15.7592 4.33247L17.9391 5.25011C18.0597 5.02712 18.1903 4.8103 18.3209 4.59964L18.7227 3.58336L16.4524 2.62564ZM23.3839 4.53285C24.2679 4.53285 24.9912 5.26861 24.9912 6.177C24.9912 7.08539 24.2679 7.82115 23.3839 7.82115C22.4999 7.82115 21.7766 7.08539 21.7766 6.177C21.7766 5.26861 22.4999 4.53285 23.3839 4.53285ZM9.65141 9.63998C8.12446 9.60916 6.84866 13.0721 8.41579 13.7298L9.29981 14.0997L11.0879 12.507L10.9172 10.0818L10.0331 9.71192C9.92264 9.67081 9.82219 9.65026 9.72173 9.63998H9.65141ZM12.8861 12.2603L12.9564 13.2879L12.193 13.9661L14.1921 14.7985L14.8149 13.0721L12.8861 12.2603ZM20.0789 14.295C20.9629 14.295 21.6862 15.0348 21.6862 15.9391C21.6862 16.8434 20.9629 17.5833 20.0789 17.5833C19.1948 17.5833 18.4715 16.8434 18.4715 15.9391C18.4715 15.0348 19.1948 14.295 20.0789 14.295ZM6.03496 19.4946C4.49796 19.4638 3.24225 22.9268 4.78929 23.5844L5.68336 23.9543L7.47149 22.3616L7.29067 19.9365L6.41669 19.5665C6.30619 19.5254 6.20573 19.5049 6.10528 19.4946H6.03496ZM9.26967 22.115L9.33999 23.1425L8.57652 23.8208L10.6258 24.6737L11.2487 22.9473L9.26967 22.115ZM16.0204 24.0982C16.9044 24.0982 17.6277 24.8381 17.6277 25.7424C17.6277 26.6466 16.9044 27.3865 16.0204 27.3865C15.1364 27.3865 14.4131 26.6466 14.4131 25.7424C14.4131 24.8381 15.1364 24.0982 16.0204 24.0982ZM1.94635 29.6883C0.419407 29.6575 -0.844342 33.1205 0.710733 33.7781L1.59475 34.1481L3.38289 32.5553L3.20207 30.1302L2.32809 29.7602C2.21759 29.7191 2.11713 29.6986 2.01667 29.6883H1.94635ZM5.18107 32.3087L5.25139 33.3363L4.48792 34.0145L6.77834 34.9701L7.46145 33.2643L5.18107 32.3087ZM12.1427 34.2097C13.0268 34.2097 13.7501 34.9496 13.7501 35.8539C13.7501 36.7581 13.0268 37.498 12.1427 37.498C11.2587 37.498 10.5354 36.7581 10.5354 35.8539C10.5354 34.9496 11.2587 34.2097 12.1427 34.2097Z" fill="#2A2A2A"/>
</svg>
