<svg width="30" height="24" viewBox="0 0 30 24" fill="none" xmlns="http://www.w3.org/2000/svg">
<path d="M27.4948 0H2.50521C1.11979 0 0 1.11979 0 2.5V20.8333C0 22.2135 1.11979 23.3333 2.50521 23.3333H27.4948C28.8802 23.3333 30 22.2135 30 20.8333V2.5C30 1.11979 28.8802 0 27.4948 0ZM2.81771 2.5H27.1823C27.3542 2.5 27.4948 2.64062 27.4948 2.8125V5H2.50521V2.8125C2.50521 2.64062 2.64583 2.5 2.81771 2.5ZM27.1823 20.8333H2.81771C2.64583 20.8333 2.50521 20.6927 2.50521 20.5208V11.6667H27.4948V20.5208C27.4948 20.6927 27.3542 20.8333 27.1823 20.8333ZM10 15.625V17.7083C10 18.0521 9.71875 18.3333 9.375 18.3333H5.625C5.28125 18.3333 5 18.0521 5 17.7083V15.625C5 15.2812 5.28125 15 5.625 15H9.375C9.71875 15 10 15.2812 10 15.625ZM20 15.625V17.7083C20 18.0521 19.7187 18.3333 19.375 18.3333H12.2917C11.9479 18.3333 11.6667 18.0521 11.6667 17.7083V15.625C11.6667 15.2812 11.9479 15 12.2917 15H19.375C19.7187 15 20 15.2812 20 15.625Z" fill="black"/>
</svg>
