<svg width="30" height="30" viewBox="0 0 30 30" fill="none" xmlns="http://www.w3.org/2000/svg">
<path d="M29.9851 29.2422C29.4226 26.7578 26.2115 25.5469 25.1021 25.1562C23.8832 24.7266 22.1488 24.625 21.0315 24.375C20.3909 24.2344 19.4612 23.8828 19.1486 23.5078C18.8361 23.1328 19.0236 19.6562 19.0236 19.6562C19.0236 19.6562 19.6018 18.7578 19.9143 17.9609C20.2268 17.1719 20.5706 15 20.5706 15C20.5706 15 21.2112 15 21.4378 13.875C21.68 12.6484 22.0628 12.1719 22.016 11.2578C21.9691 10.3594 21.4769 10.3828 21.4769 10.3828C21.4769 10.3828 21.9535 9.07812 22.0082 6.375C22.0785 3.16406 19.5627 0 15.0078 0C10.3904 0 7.92933 3.16406 7.99965 6.375C8.06215 9.07812 8.52311 10.3828 8.52311 10.3828C8.52311 10.3828 8.0309 10.3594 7.98402 11.2578C7.93715 12.1719 8.31998 12.6484 8.56218 13.875C8.78094 15 9.42941 15 9.42941 15C9.42941 15 9.77318 17.1719 10.0857 17.9609C10.3982 18.7578 10.9764 19.6562 10.9764 19.6562C10.9764 19.6562 11.1639 23.1328 10.8514 23.5078C10.5388 23.8828 9.6091 24.2344 8.96845 24.375C7.85121 24.625 6.11674 24.7266 4.89793 25.1562C3.78851 25.5469 0.577409 26.7578 0.0148818 29.2422C-0.0710599 29.6328 0.22583 30 0.6321 30H29.3757C29.7742 30 30.071 29.6328 29.9851 29.2422Z" fill="#D9D9D9"/>
</svg>
