<svg width="28" height="30" viewBox="0 0 28 30" fill="none" xmlns="http://www.w3.org/2000/svg">
<path d="M12.7539 15L8.96035 11.1693C8.07575 11.6971 7.0438 12 5.94188 12C2.66033 12 0 9.31371 0 6C0 2.68629 2.66033 0 5.94188 0C9.22358 0 11.8838 2.68629 11.8838 6C11.8838 7.11272 11.5838 8.15467 11.0611 9.04795L14.8547 12.8787L23.7985 3.84746C24.9587 2.67588 26.8398 2.67588 28 3.84746L16.9554 15L28 26.1525C26.8398 27.3242 24.9587 27.3242 23.7985 26.1525L14.8547 17.1213L11.0611 20.952C11.5838 21.8453 11.8838 22.8873 11.8838 24C11.8838 27.3137 9.22358 30 5.94188 30C2.66033 30 0 27.3137 0 24C0 20.6863 2.66033 18 5.94188 18C7.0438 18 8.07575 18.3028 8.96035 18.8307L12.7539 15ZM2.97094 6C2.97094 7.65686 4.30103 9 5.94188 9C7.58273 9 8.91282 7.65686 8.91282 6C8.91282 4.34314 7.58273 3 5.94188 3C4.30103 3 2.97094 4.34314 2.97094 6ZM2.97094 24C2.97094 25.6569 4.30103 27 5.94188 27C7.58273 27 8.91282 25.6569 8.91282 24C8.91282 22.3431 7.58273 21 5.94188 21C4.30103 21 2.97094 22.3431 2.97094 24Z" fill="black"/>
</svg>
