<svg width="30" height="30" viewBox="0 0 30 30" fill="none" xmlns="http://www.w3.org/2000/svg">
<path d="M28.3333 20.8334C26.3258 20.8333 24.3304 20.5242 22.417 19.917C21.8334 19.7502 21.167 19.8332 20.7504 20.3337L17.0833 23.9999C12.3331 21.5837 8.50016 17.7499 6.08313 12.9997L9.75023 9.33352C10.1668 8.91687 10.3332 8.25039 10.1668 7.66687C9.49984 5.75039 9.16664 3.75 9.16664 1.66664C9.16664 0.750313 8.41672 0 7.5 0H1.66664C0.749922 0 0 0.750313 0 1.66664C0 17.3331 12.6669 30 28.3333 30C29.2497 30 30 29.2497 30 28.3334V22.5C30 21.5837 29.2497 20.8334 28.3333 20.8334Z" fill="#565656"/>
</svg>
