<svg width="53" height="30" viewBox="0 0 53 30" fill="none" xmlns="http://www.w3.org/2000/svg">
<path d="M46.7243 20.0409C45.706 19.1044 44.8653 18.5425 44.5337 17.6412C44.4153 17.3251 44.3798 17.1378 44.4153 16.7515C44.4627 16.0491 45.0666 15.1361 49.1043 9.85658C50.7857 7.65583 52.9763 4.99853 52.9763 3.00848C52.9763 1.72081 52.4435 1.40474 50.5134 1.40474H41.7511C40.9815 1.40474 40.4605 2.44659 40.1408 3.32455C39.8092 4.20251 39.1698 5.54872 37.6068 8.45184C35.9727 11.4954 33.7822 14.1644 32.8704 14.5859C32.6099 14.7029 32.4441 14.7029 32.2192 14.6795C32.0771 14.6678 31.7692 14.5859 31.485 14.2464C31.2127 13.9186 30.7864 13.345 30.9522 7.93677C31.0469 4.91658 31.3903 2.80948 30.7509 1.5218C30.6206 1.26426 30.3365 0.995022 30.1825 0.877961C29.2708 0.234122 26.7013 0 24.4989 0C22.2965 0 20.6032 0.24583 19.7625 0.491659C18.9218 0.737488 17.9745 1.29938 17.5246 1.8964C17.2286 2.2827 18.0337 2.08369 18.8152 2.43488C19.2889 2.64559 19.9164 2.97336 20.1414 3.52355C21.0887 5.95843 21.29 7.88995 20.769 11.3316C20.6387 12.1744 20.4966 13.4972 19.9875 14.3166C19.7033 14.7732 19.0521 14.738 18.8626 14.6795C16.9562 14.1059 15.4761 11.6359 13.9841 8.7445C12.433 5.72431 11.6396 3.6055 11.2134 2.73924C10.7871 1.87298 10.1358 1.40474 9.03463 1.40474H1.17225C0.556523 1.40474 0 1.9081 0 2.45829C0 3.74597 2.20241 7.49194 3.5286 10.1844C5.92046 15.0307 9.05831 19.7132 13.2855 24.2552C17.714 29.0781 23.7529 29.9795 25.683 29.9795C27.613 29.9795 29.1168 29.9092 29.626 29.8039C29.8628 29.757 30.1115 29.6517 30.3009 29.5112C31.1416 28.8674 30.9877 27.6382 31.0469 26.6783C31.1061 25.695 31.2127 24.3956 31.8758 23.6347C32.4915 22.9206 33.1901 22.7216 34.0782 23.1548C34.9071 23.5645 35.4991 24.2551 36.1148 24.9224C37.3108 26.1984 38.4001 27.6382 39.821 28.6918C40.4723 29.1717 41.1828 29.4761 41.9406 29.7102C42.9471 30.0146 43.8943 30.0263 44.9363 29.9795C46.0849 29.9326 46.9493 29.9443 48.3702 29.9443C49.7911 29.9443 51.6501 30.0029 52.2895 29.5346C52.5974 29.3005 53 28.9493 53 28.2118C53 26.8188 51.5554 24.501 46.7243 20.0409Z" fill="#565656"/>
</svg>
