<svg width="30" height="30" viewBox="0 0 30 30" fill="none" xmlns="http://www.w3.org/2000/svg">
<path d="M15.272 0C7.13873 0 0.544687 6.54248 0.544687 14.6137C0.544687 17.3747 1.31692 19.9568 2.65801 22.1598L0 30L8.15384 27.4097C10.2638 28.5672 12.6903 29.2275 15.272 29.2275C23.4064 29.2275 30 22.6841 30 14.6137C30 6.54248 23.4064 0 15.272 0ZM22.5954 20.1636C22.2489 21.0226 20.6819 21.8064 19.9905 21.8425C19.2998 21.8792 19.2802 22.3779 15.5146 20.7421C11.7496 19.1058 9.48435 15.1275 9.30576 14.8713C9.12703 14.616 7.84728 12.7923 7.91632 10.9569C7.98583 9.12121 8.99089 8.25516 9.34962 7.89495C9.70795 7.53422 10.1188 7.4696 10.3696 7.46551C10.6661 7.46069 10.8582 7.45667 11.0776 7.46478C11.2969 7.47308 11.6262 7.41891 11.9113 8.17721C12.1963 8.93545 12.8785 10.7991 12.9658 10.989C13.0529 11.1791 13.1069 11.3992 12.9726 11.6433C12.8379 11.8879 12.7689 12.0407 12.5734 12.2515C12.3769 12.4623 12.16 12.7231 11.9847 12.8843C11.7891 13.0627 11.5849 13.2574 11.7905 13.6389C11.9959 14.0201 12.7047 15.2699 13.7846 16.2998C15.1724 17.6237 16.3693 18.0629 16.7376 18.263C17.1069 18.4641 17.3273 18.4418 17.5563 18.2008C17.7842 17.9598 18.5366 17.1463 18.8016 16.7832C19.0664 16.419 19.3146 16.4904 19.6548 16.6272C19.9949 16.7646 21.8082 17.7359 22.1776 17.9365C22.5465 18.1366 22.7932 18.2397 22.8814 18.3985C22.9696 18.5579 22.9417 19.3046 22.5954 20.1636Z" fill="#565656"/>
</svg>
