<svg width="40" height="30" viewBox="0 0 40 30" fill="none" xmlns="http://www.w3.org/2000/svg">
<path d="M39.7404 6.62463C39.7404 3.1092 37.1541 0.281234 33.9583 0.281234C29.6296 0.0781205 25.2149 0 20.7065 0H19.3C14.7994 0 10.3769 0.0781205 6.0482 0.281234C2.86026 0.281234 0.273963 3.12483 0.273963 6.64026C0.0786236 9.42135 -0.00732579 12.2024 0.000487785 14.9835C-0.00732579 17.7646 0.0786236 20.5457 0.266149 23.3346C0.266149 26.8501 2.85244 29.7015 6.04038 29.7015C10.5879 29.9124 15.2526 30.0061 19.9954 29.9983C24.7461 30.014 29.3952 29.9202 33.9505 29.7015C37.1462 29.7015 39.7325 26.8501 39.7325 23.3346C39.9201 20.5457 40.006 17.7646 39.9982 14.9757C40.0138 12.1946 39.9279 9.41354 39.7404 6.62463ZM16.1746 22.6472V7.29647L27.5043 14.9679L16.1746 22.6472Z" fill="#565656"/>
</svg>
